<svg xmlns="http://www.w3.org/2000/svg" viewBox="0 0 64 64" role="img" aria-label="Saydam Fitness">
  <defs>
    <linearGradient id="bg" x1="12" y1="8" x2="52" y2="58" gradientUnits="userSpaceOnUse">
      <stop stop-color="#10b981"/>
      <stop offset="1" stop-color="#047857"/>
    </linearGradient>
  </defs>
  <rect width="64" height="64" rx="16" fill="url(#bg)"/>
  <rect x="9" y="9" width="46" height="46" rx="13" fill="none" stroke="#ffffff" stroke-opacity=".35" stroke-width="2"/>
  <path fill="#ffffff" d="M20 41c3.6 2.8 8.3 4.1 13.1 3.3 7.4-1.2 12.4-6.5 12.4-13.2 0-5.6-4.2-9.6-10.4-9.6h-8.6c-1.4 0-2.4-.8-2.4-2 0-1.5 1.7-2.6 4.8-2.6 3.7 0 7.3 1.1 10.5 3.2l4.1-7.2C39.5 10.3 34.3 9 29.1 9 21.5 9 16.3 13.4 16.3 20c0 5.7 4.1 9.4 10.3 9.4h8.4c1.7 0 2.7.8 2.7 2.1 0 1.7-1.9 2.8-5.1 2.8-4.2 0-8.3-1.5-11.7-4.1L16 37.4c1.1 1.4 2.4 2.6 4 3.6Z"/>
  <path fill="#d1fae5" d="M21 50h22v5H21z"/>
</svg>
